<svg width="32" height="32" viewBox="0 0 32 32" fill="none" xmlns="http://www.w3.org/2000/svg">
<path d="M16 31C13.0333 31 10.1332 30.1203 7.66645 28.4721C5.19972 26.8238 3.27713 24.4812 2.14181 21.7403C1.0065 18.9994 0.709449 15.9834 1.28823 13.0737C1.86701 10.1639 3.29562 7.49119 5.3934 5.3934C7.49119 3.29562 10.1639 1.86701 13.0737 1.28823C15.9834 0.709449 18.9994 1.0065 21.7403 2.14181C24.4812 3.27713 26.8238 5.19972 28.4721 7.66645C30.1203 10.1332 31 13.0333 31 16C31 19.9783 29.4197 23.7936 26.6066 26.6066C23.7936 29.4197 19.9783 31 16 31ZM16 3.00001C13.4288 3.00001 10.9154 3.76244 8.77759 5.1909C6.63975 6.61936 4.97351 8.64968 3.98957 11.0251C3.00563 13.4006 2.74819 16.0144 3.2498 18.5362C3.75141 21.0579 4.98954 23.3743 6.80762 25.1924C8.6257 27.0105 10.9421 28.2486 13.4638 28.7502C15.9856 29.2518 18.5995 28.9944 20.9749 28.0104C23.3503 27.0265 25.3807 25.3603 26.8091 23.2224C28.2376 21.0846 29 18.5712 29 16C29 12.5522 27.6304 9.24559 25.1924 6.80762C22.7544 4.36965 19.4478 3.00001 16 3.00001V3.00001Z" fill="#8B0000"/>
<path d="M16 24C15.6044 24 15.2178 23.8827 14.8889 23.6629C14.56 23.4432 14.3036 23.1308 14.1522 22.7654C14.0009 22.3999 13.9613 21.9978 14.0384 21.6098C14.1156 21.2219 14.3061 20.8655 14.5858 20.5858C14.8655 20.3061 15.2219 20.1156 15.6098 20.0384C15.9978 19.9613 16.3999 20.0009 16.7654 20.1522C17.1308 20.3036 17.4432 20.56 17.6629 20.8889C17.8827 21.2178 18 21.6044 18 22C18 22.5304 17.7893 23.0391 17.4142 23.4142C17.0391 23.7893 16.5304 24 16 24V24Z" fill="#8B0000"/>
<path d="M16 18C15.7348 18 15.4804 17.8946 15.2929 17.7071C15.1054 17.5196 15 17.2652 15 17V8C15 7.73478 15.1054 7.48043 15.2929 7.29289C15.4804 7.10536 15.7348 7 16 7C16.2652 7 16.5196 7.10536 16.7071 7.29289C16.8946 7.48043 17 7.73478 17 8V17C17 17.2652 16.8946 17.5196 16.7071 17.7071C16.5196 17.8946 16.2652 18 16 18Z" fill="#8B0000"/>
</svg>
